<svg width="1570" height="235" viewBox="0 0 1570 235" fill="none" xmlns="http://www.w3.org/2000/svg">
<path d="M1053 182.572V29.1381H1108.19C1116.05 29.1381 1123.31 30.8916 1129.95 34.3985C1136.61 37.9054 1141.99 42.7699 1146.07 48.9919C1150.15 55.1912 1152.19 62.3635 1152.19 70.5086C1152.19 78.0655 1150.25 84.6382 1146.37 90.2267C1142.52 95.7925 1137.44 100.001 1131.14 102.852V103.7C1138.73 106.144 1145 110.51 1149.94 116.8C1154.88 123.067 1157.35 130.489 1157.35 139.064C1157.35 147.639 1155.2 155.184 1150.89 161.7C1146.61 168.194 1140.95 173.296 1133.93 177.006C1126.92 180.717 1119.34 182.572 1111.18 182.572H1053ZM1062.66 112.728V95.3513H1108.19C1113.63 95.3513 1118.27 94.1069 1122.13 91.6181C1126 89.1067 1128.97 85.9957 1131.04 82.2852C1133.12 78.5746 1134.16 74.7848 1134.16 70.9159C1134.16 67.0696 1133.16 63.2911 1131.14 59.5806C1129.14 55.87 1126.29 52.7703 1122.57 50.2815C1118.85 47.7701 1114.34 46.5144 1109.04 46.5144H1071.26V165.23H1112.27C1117.71 165.23 1122.42 163.906 1126.41 161.259C1130.42 158.612 1133.51 155.252 1135.66 151.18C1137.81 147.107 1138.89 143 1138.89 138.86C1138.89 134.584 1137.78 130.443 1135.56 126.439C1133.34 122.434 1130.19 119.153 1126.11 116.597C1122.03 114.017 1117.13 112.728 1111.42 112.728H1062.66ZM1228.19 186C1217.61 186 1208.2 183.5 1199.97 178.5C1191.74 173.499 1185.29 166.644 1180.62 157.933C1175.98 149.222 1173.65 139.29 1173.65 128.136C1173.65 117.705 1175.83 108.067 1180.18 99.2203C1184.56 90.3511 1190.71 83.2467 1198.64 77.9072C1206.6 72.5449 1215.95 69.8638 1226.7 69.8638C1237.58 69.8638 1246.92 72.2621 1254.71 77.0587C1262.51 81.8327 1268.52 88.4393 1272.74 96.8786C1276.95 105.295 1279.06 114.934 1279.06 125.794C1279.06 126.789 1279.03 127.785 1278.96 128.78C1278.89 129.776 1278.79 130.636 1278.65 131.36H1184.4V116.359H1259.75C1259.61 113.35 1258.93 110.103 1257.71 106.619C1256.51 103.112 1254.58 99.8199 1251.93 96.7428C1249.27 93.6657 1245.91 91.1656 1241.83 89.2425C1237.75 87.3193 1232.7 86.3577 1226.7 86.3577C1219.53 86.3577 1213.33 88.1791 1208.1 91.8218C1202.88 95.4645 1198.88 100.431 1196.09 106.721C1193.31 113.01 1191.91 120.149 1191.91 128.136C1191.91 137.435 1193.7 145.161 1197.28 151.315C1200.87 157.447 1205.48 162.017 1211.12 165.026C1216.77 168.013 1222.67 169.506 1228.84 169.506C1236.86 169.506 1243.48 167.617 1248.7 163.838C1253.93 160.037 1258.11 155.354 1261.24 149.788L1276.71 157.288C1272.43 165.569 1266.28 172.425 1258.25 177.855C1250.23 183.285 1240.21 186 1228.19 186ZM1300.34 182.572V73.2916H1317.71V90.8715H1318.56C1320.02 86.7311 1322.42 83.1223 1325.77 80.0452C1329.13 76.9682 1332.99 74.536 1337.37 72.7486C1341.74 70.9612 1346.07 70.0675 1350.36 70.0675C1353.64 70.0675 1356.22 70.2485 1358.08 70.6105C1359.93 70.9725 1361.66 71.5042 1363.24 72.2056V91.9236C1360.95 90.7923 1358.48 89.9439 1355.83 89.3782C1353.18 88.79 1350.49 88.4958 1347.77 88.4958C1342.49 88.4958 1337.63 90.0004 1333.19 93.0096C1328.74 95.9962 1325.19 99.9895 1322.54 104.99C1319.89 109.99 1318.56 115.499 1318.56 121.518V182.572H1300.34ZM1381.92 182.572V29.1381H1400.15V182.572H1381.92ZM1428.92 182.572V73.2916H1447.18V182.572H1428.92ZM1437.93 53.1323C1434.38 53.1323 1431.3 51.854 1428.72 49.2973C1426.14 46.718 1424.84 43.641 1424.84 40.0662C1424.84 36.3556 1426.14 33.2559 1428.72 30.7671C1431.3 28.2557 1434.38 27 1437.93 27C1441.67 27 1444.79 28.2557 1447.28 30.7671C1449.8 33.2559 1451.06 36.3556 1451.06 40.0662C1451.06 43.641 1449.8 46.718 1447.28 49.2973C1444.79 51.854 1441.67 53.1323 1437.93 53.1323ZM1475.74 182.572V73.2916H1493.12V89.3443H1493.97C1496.85 84.0726 1501.54 79.5136 1508.05 75.6672C1514.55 71.7983 1521.67 69.8638 1529.4 69.8638C1542.87 69.8638 1553 73.7554 1559.8 81.5385C1566.6 89.3217 1570 99.6388 1570 112.49V182.572H1551.74V115.273C1551.74 104.707 1549.2 97.2519 1544.12 92.9078C1539.05 88.5411 1532.49 86.3577 1524.47 86.3577C1518.46 86.3577 1513.17 88.0433 1508.59 91.4145C1504.01 94.7631 1500.43 99.0845 1497.85 104.379C1495.26 109.651 1493.97 115.216 1493.97 121.076V182.572H1475.74Z" fill="black"/>
<path d="M119.7 171.5L93.9 185.5L85.6 167.3C77 177.9 64.3 185.5 47.8 185.5C16.4 185.5 0 159.5 0 119.3C0 75.6002 19.4 52.1002 50.3 52.1002C64.8 52.1002 76.1 57.5002 83.4 67.6002V3.2002H109.9V151.9L119.7 171.5ZM83.4 153.8V85.3002C76.5 79.7002 67.9 76.2002 58.9 76.2002C39.3 76.2002 27.7 91.2002 27.7 119.4C27.7 146.4 38.5 161.4 58.4 161.4C67.2 161.4 76.3 158.5 83.4 153.8Z" fill="black"/>
<path d="M251.2 121.7H164.3C166.1 144 183.5 159 211 159C225 159 240.2 156.1 250.5 150.7L242.2 177.9C233.6 182.6 219.1 185.5 202.5 185.5C163 185.5 137 158.8 137 118C137 77 161.8 52 201.3 52C233.9 52 254.5 70.6 254.5 100.8C254.4 107.7 253.2 115.8 251.2 121.7ZM165.9 103.3H228.5C227.3 84.2 218.2 75.1 201.3 75.1C182.8 75.1 170 85.6 165.9 103.3Z" fill="black"/>
<path d="M315.8 182.3L265.7 55.2002H294.9L327.5 144L331.2 155H332.2L335.9 144L368.3 55.2002H397L347.2 182.3H315.8Z" fill="black"/>
<path d="M483.8 55.5H541.2L537.5 75.9H480.1L460 190.2C454.4 222.1 433 234.1 403.1 234.1C389.4 234.1 383 232.1 376.1 230.7L375.6 210.1C382.5 211.3 390.6 212.1 401.9 212.1C419.8 212.1 431.6 205 434.3 190L454.4 75.9H414.4L418.1 55.5H458.1L460.1 43.7C465.7 12 486.8 0 516.5 0C530.5 0 537.6 2 543.7 3.4L544.2 24.5C537.3 22.8 529.2 22 517.9 22C500.2 22 488.5 29.1 485.8 44.1L483.8 55.5Z" fill="black"/>
<path d="M659.8 121.7H572.9C574.6 144 592 159 619.5 159C633.5 159 648.7 156.1 659 150.7L650.7 177.9C642.1 182.6 627.6 185.5 611 185.5C571.5 185.5 545.5 158.8 545.5 118C545.5 77 570.3 52 609.8 52C642.4 52 663 70.6 663 100.8C662.9 107.7 661.7 115.8 659.8 121.7ZM574.4 103.3H637C635.8 84.2 626.7 75.1 609.8 75.1C591.3 75.1 578.5 85.6 574.4 103.3Z" fill="black"/>
<path d="M688.2 174.7L686.5 146.2C697.8 154.1 718.4 160.9 740 160.9C756.4 160.9 768.2 155.7 768.2 144.2C768.2 120.2 689.2 142.5 689.2 93.4002C689.2 70.6002 706.4 51.2002 747.4 51.2002C772.4 51.2002 791.6 57.3002 791.6 72.5002C791.6 77.2002 789.6 81.1002 787.7 84.8002C776.9 79.6002 760 76.0002 745.7 76.0002C726.1 76.0002 715.8 83.4002 715.8 91.5002C715.8 112.8 795.8 94.2002 795.8 142C795.8 168.7 772.2 185.4 737.2 185.4C713.2 185.5 695.3 177.9 688.2 174.7Z" fill="black"/>
<path d="M932.3 155.3L926.9 180.1C920.5 182.8 907.8 185.5 896 185.5C864.3 185.5 850.9 169.1 850.9 145.8V77.6004H814.8V55.3004H850.9V20.4004H877.4V55.2004H928.7V77.5004H877.4V137.6C877.4 154 886 161.4 901 161.4C909.5 161.4 925.2 159.5 932.3 155.3Z" fill="black"/>
</svg>
